<svg xmlns="http://www.w3.org/2000/svg" xmlns:xlink="http://www.w3.org/1999/xlink" width="608" height="387" viewBox="0 0 608 387"><defs><style>.a{fill:#fff;stroke:#707070;}.b{fill:#c8c8c8;}.c,.e{fill:#959595;}.c{font-size:40px;font-family:Roboto-Bold, Roboto;font-weight:700;}.d{clip-path:url(#a);}</style><clipPath id="a"><rect class="a" width="150" height="150" transform="translate(1417 1654)"/></clipPath></defs><g transform="translate(-1186 -1579)"><rect class="b" width="608" height="387" rx="8" transform="translate(1186 1579)"/><text class="c" transform="translate(1349.5 1871.304)"><tspan x="0" y="0">Where&apos;s image?</tspan></text><g class="d" transform="translate(0 8.696)"><path class="e" d="M87.311,51.48a9.313,9.313,0,0,0-4.566-2.412A17.679,17.679,0,1,0,65.6,70.968a17.829,17.829,0,0,0,13.314-6.079l1.123,1.118-5.967,7.476H47.873c-4.056.038-10.093,2.749-10.091,10.069v25.172a2.523,2.523,0,0,0,.425,1.4c.308.458,3.12,4.476,7.347,4.476a6.619,6.619,0,0,0,2.341-.476v24.828C47.924,142.989,50.64,149,58.01,149a9.524,9.524,0,0,0,7.585-3.288A9.524,9.524,0,0,0,73.18,149c7.37,0,10.086-6.011,10.114-10.069V91.821L99.771,65.372a2.509,2.509,0,0,0-.475-3.215C99.288,62.153,94.034,57.544,87.311,51.48ZM65.595,65.931A12.586,12.586,0,1,1,77.751,50.047a8.273,8.273,0,0,0-3.593,5.812,7.638,7.638,0,0,0,1.241,5.4A12.733,12.733,0,0,1,65.595,65.931ZM78.619,89.777a2.512,2.512,0,0,0-.379,1.327v47.81c0,.516-.174,5.052-5.057,5.052-4.581,0-5.029-3.877-5.057-5.07v-20.1a2.528,2.528,0,0,0-5.057,0v20.1c-.028,1.191-.473,5.072-5.057,5.072s-5.031-3.882-5.057-5.034V91.1a2.528,2.528,0,0,0-5.057,0v16.808c-.6.78-1.461,1.646-2.334,1.651h-.008a4.429,4.429,0,0,1-2.715-1.7V83.552c0-4.559,3.9-5,5.057-5.034h27.39a2.532,2.532,0,0,0,1.98-.952l8.126-10.187a2.51,2.51,0,0,0-.192-3.345l-4.786-4.765A2.458,2.458,0,0,0,80.1,59a2.493,2.493,0,0,1-.933-2.457,3.068,3.068,0,0,1,1.7-2.482c1.044-.368,2.23.418,3.042,1.15,4.518,4.073,8.374,7.494,10.435,9.314Zm40.024-56.356a9.427,9.427,0,0,1-6.918,9.062v1.956a2.528,2.528,0,0,1-5.057,0V40.308a2.524,2.524,0,0,1,2.528-2.517,4.37,4.37,0,1,0-4.384-4.37,2.528,2.528,0,0,1-5.057,0,9.444,9.444,0,0,1,18.887,0Zm-6.918,17.669v1.377a2.528,2.528,0,0,1-5.057,0V51.089a2.528,2.528,0,0,1,5.057,0ZM29.53,33.043a9.427,9.427,0,0,1-6.915,9.062v1.956a2.528,2.528,0,0,1-5.057,0V39.928a2.524,2.524,0,0,1,2.528-2.517,4.37,4.37,0,1,0-4.387-4.37,2.528,2.528,0,0,1-5.057,0,9.444,9.444,0,0,1,18.887,0ZM22.612,50.709v1.377a2.528,2.528,0,0,1-5.057,0V50.709a2.528,2.528,0,0,1,5.057,0ZM52.2,10.252a7.284,7.284,0,1,1,9.813,6.8v.775a2.528,2.528,0,0,1-5.057,0V14.99a2.524,2.524,0,0,1,2.528-2.517,2.219,2.219,0,1,0-2.228-2.22,2.528,2.528,0,0,1-5.057,0ZM62.015,24.92v.946a2.528,2.528,0,0,1-5.057,0V24.92a2.528,2.528,0,0,1,5.057,0Z" transform="translate(1425.357 1653)"/></g></g></svg>