<svg xmlns="http://www.w3.org/2000/svg" xmlns:xlink="http://www.w3.org/1999/xlink" width="20" height="20" viewBox="0 0 20 20"><defs><style>.a,.c{fill:#b72323;}.a{stroke:#707070;}.b{clip-path:url(#a);}</style><clipPath id="a"><rect class="a" width="20" height="20" transform="translate(1025 467)"/></clipPath></defs><g class="b" transform="translate(-1025 -467)"><g transform="translate(1026.429 468.428)"><path class="c" d="M9.951,20.243a1.928,1.928,0,0,1-.4-.042,1.892,1.892,0,0,1-1.377-1.175h0L6.843,15.554a.631.631,0,0,0-.363-.363L3.007,13.855a1.9,1.9,0,0,1-.66-3.112L9.435,3.655a1.89,1.89,0,0,1,1.714-.519L16.366,4.18a1.892,1.892,0,0,1,1.488,1.489L18.9,10.885a1.892,1.892,0,0,1-.519,1.714L11.29,19.687A1.889,1.889,0,0,1,9.951,20.243Zm-.593-1.67a.632.632,0,0,0,1.037.22L17.484,11.7a.632.632,0,0,0,.173-.571L16.614,5.916a.631.631,0,0,0-.5-.5L10.9,4.376a.639.639,0,0,0-.571.174L3.241,11.638a.633.633,0,0,0,.22,1.037l3.472,1.335A1.9,1.9,0,0,1,8.023,15.1Z" transform="translate(-1.791 -3.099)"/><path class="c" d="M20.265,11.529a1.264,1.264,0,1,1,.894-.37,1.264,1.264,0,0,1-.894.37Z" transform="translate(-8.119 -5.269)"/></g></g></svg>