<svg xmlns="http://www.w3.org/2000/svg" xmlns:xlink="http://www.w3.org/1999/xlink" width="20" height="20" viewBox="0 0 20 20"><defs><style>.a,.c{fill:#b72323;}.a{stroke:#707070;}.b{clip-path:url(#a);}</style><clipPath id="a"><rect class="a" width="20" height="20" transform="translate(-292 2823)"/></clipPath></defs><g class="b" transform="translate(292 -2823)"><g transform="translate(-291 2824)"><path class="c" d="M9,17a8,8,0,1,1,8-8A8,8,0,0,1,9,17Zm0-1.455A6.545,6.545,0,1,0,2.455,9,6.545,6.545,0,0,0,9,15.545ZM9,9.278l2.507,1.254a.727.727,0,0,1-.65,1.3L7.947,10.378a.727.727,0,0,1-.4-.65V5.364A.727.727,0,1,1,9,5.364Z"/></g></g></svg>