<svg xmlns="http://www.w3.org/2000/svg" xmlns:xlink="http://www.w3.org/1999/xlink" width="20" height="20" viewBox="0 0 20 20"><defs><style>.a,.c{fill:#959595;}.a{stroke:#707070;}.b{clip-path:url(#a);}</style><clipPath id="a"><rect class="a" width="20" height="20" transform="translate(-473 430)"/></clipPath></defs><g class="b" transform="translate(473 -430)"><g transform="translate(-501.711 411)"><g transform="translate(32 21)"><path class="c" d="M8151.158,4702.609l.593,8.429c.032.5-.622.934-1.36.961s-1.447-.355-1.479-.859a.357.357,0,0,1,0-.1l.588-8.429a1.759,1.759,0,0,1-1.5-1.882v-4.377a.43.43,0,0,1,.846,0v3.567a.217.217,0,0,0,.427,0v-3.567a.43.43,0,0,1,.846,0v3.567a.2.2,0,0,0,.212.178.2.2,0,0,0,.214-.178v-3.567a.431.431,0,0,1,.847,0v3.567a.2.2,0,0,0,.211.178.2.2,0,0,0,.215-.178v-3.567a.429.429,0,0,1,.843,0v4.377A1.755,1.755,0,0,1,8151.158,4702.609Zm9.643,2.248v6.033c0,.614-.669,1.109-1.5,1.109s-1.5-.5-1.5-1.109v-5.54l-.982-.267v-5.893c0-1.764,1.6-3.19,3.975-3.19v8.856Z" transform="translate(-8147.999 -4696)"/></g></g></g></svg>