<svg xmlns="http://www.w3.org/2000/svg" xmlns:xlink="http://www.w3.org/1999/xlink" width="24" height="24" viewBox="0 0 24 24"><defs><style>.a,.c{fill:#fff;}.a{stroke:#707070;}.b{clip-path:url(#a);}</style><clipPath id="a"><rect class="a" width="24" height="24" transform="translate(-736 1291)"/></clipPath></defs><g class="b" transform="translate(736 -1291)"><g transform="translate(316 78)"><path class="c" d="M88.1,79.081a8.048,8.048,0,0,1,.641.728l-.178-.231a7.684,7.684,0,0,1,.963,1.65c-.039-.092-.078-.183-.114-.272a7.57,7.57,0,0,1,.522,1.922l-.041-.3a7.725,7.725,0,0,1,0,1.977l.041-.3a7.57,7.57,0,0,1-.522,1.922c.039-.092.078-.183.114-.272a7.5,7.5,0,0,1-.963,1.65l.178-.231a7.668,7.668,0,0,1-1.368,1.368L87.6,88.5a7.683,7.683,0,0,1-1.65.963l.272-.114a7.57,7.57,0,0,1-1.922.522l.3-.041a7.725,7.725,0,0,1-1.977,0l.3.041a7.57,7.57,0,0,1-1.922-.522l.272.114a7.5,7.5,0,0,1-1.65-.963l.231.178A7.668,7.668,0,0,1,78.5,87.314l.178.231a7.683,7.683,0,0,1-.963-1.65c.039.092.078.183.114.272a7.57,7.57,0,0,1-.522-1.922l.041.3a7.725,7.725,0,0,1,0-1.977l-.041.3a7.57,7.57,0,0,1,.522-1.922c-.039.092-.078.183-.114.272a7.5,7.5,0,0,1,.963-1.65l-.178.231a7.668,7.668,0,0,1,1.368-1.368l-.231.178a7.683,7.683,0,0,1,1.65-.963l-.272.114a7.57,7.57,0,0,1,1.922-.522l-.3.041a7.726,7.726,0,0,1,1.977,0l-.3-.041a7.57,7.57,0,0,1,1.922.522l-.272-.114a7.5,7.5,0,0,1,1.65.963l-.231-.178a8.051,8.051,0,0,1,.728.641,1.149,1.149,0,0,0,1.62,0,1.152,1.152,0,0,0,.334-.81,1.206,1.206,0,0,0-.334-.81,8.573,8.573,0,0,0-4.558-2.379,9.584,9.584,0,0,0-1.4-.142,8.275,8.275,0,0,0-1.281.085,8.456,8.456,0,0,0-1.263.254,9.779,9.779,0,0,0-1.318.506,8.617,8.617,0,0,0-4.272,10.989,8.8,8.8,0,0,0,.631,1.274,9.438,9.438,0,0,0,.867,1.176,8.6,8.6,0,0,0,9.442,2.437,9.446,9.446,0,0,0,1.3-.6,9.268,9.268,0,0,0,1.181-.817,8.6,8.6,0,0,0,1.583-11.692,9.753,9.753,0,0,0-.92-1.091,1.149,1.149,0,0,0-1.62,0,1.152,1.152,0,0,0-.334.81A1.192,1.192,0,0,0,88.1,79.081Z" transform="translate(-1125 1140.061)"/><path class="c" d="M633.2,634.754l1.67,1.67,2.663,2.663.613.613a1.149,1.149,0,0,0,1.62,0,1.152,1.152,0,0,0,.334-.81,1.2,1.2,0,0,0-.334-.81l-1.67-1.67-2.663-2.663-.613-.613a1.149,1.149,0,0,0-1.62,0,1.152,1.152,0,0,0-.334.81,1.18,1.18,0,0,0,.334.81Z" transform="translate(-1670.097 594.964)"/></g></g></svg>