<svg xmlns="http://www.w3.org/2000/svg" xmlns:xlink="http://www.w3.org/1999/xlink" width="20" height="20" viewBox="0 0 20 20"><defs><style>.a,.c{fill:#b72323;}.a{stroke:#707070;}.b{clip-path:url(#a);}</style><clipPath id="a"><rect class="a" width="20" height="20" transform="translate(932 455)"/></clipPath></defs><g class="b" transform="translate(-932 -455)"><g transform="translate(929 457)"><path class="c" d="M7.049,0h8.773a2.959,2.959,0,0,1,.32.243q1.918,1.92,3.836,3.83a.709.709,0,0,1,.222.541V14.907A1.007,1.007,0,0,1,19.115,16H7.287A1,1,0,0,1,6.2,14.909V1.054A.992.992,0,0,1,6.995.027.3.3,0,0,0,7.049,0ZM15.2,1H7.735a.616.616,0,0,0-.169.021A.51.51,0,0,0,7.2,1.59V14.463a.5.5,0,0,0,.545.544H18.616a.514.514,0,0,0,.587-.582V5H15.774A.51.51,0,0,1,15.2,4.42v-2c0-.467,0-.934,0-1.417Zm1,3h2.238L16.2,1.76Z"/><path class="c" d="M28.981,62.509h3.465a.5.5,0,0,1,.107.984.958.958,0,0,1-.187.01h-6.82a.877.877,0,0,1-.171-.011.5.5,0,0,1,.109-.984h3.5Z" transform="translate(-15.766 -52.507)"/><path class="c" d="M28.988,76H25.569a.5.5,0,1,1,0-1h6.873a.5.5,0,1,1,0,1H28.988Z" transform="translate(-15.803 -63.001)"/><path class="c" d="M29,49.968h3.384a1.1,1.1,0,0,1,.2.01.5.5,0,0,1-.09.984H25.552a.5.5,0,1,1,0-1H29Z" transform="translate(-15.8 -41.969)"/><path class="c" d="M27.03,37.512h1.438a.5.5,0,1,1,0,1h-2.89a.5.5,0,1,1,0-1C26.063,37.51,26.546,37.512,27.03,37.512Z" transform="translate(-15.829 -31.509)"/></g></g></svg>