<svg xmlns="http://www.w3.org/2000/svg" xmlns:xlink="http://www.w3.org/1999/xlink" width="20" height="20" viewBox="0 0 20 20"><defs><style>.a,.c{fill:#959595;}.a{stroke:#707070;}.b{clip-path:url(#a);}</style><clipPath id="a"><rect class="a" width="20" height="20" transform="translate(250 258)"/></clipPath></defs><g class="b" transform="translate(-250 -258)"><g transform="translate(251.363 259.882)"><g transform="translate(0 0)"><path class="c" d="M8498.753,4530.661a2.412,2.412,0,0,1,.963,2.274v7.086a2.656,2.656,0,0,1-2.657,2.658h-12.4a2.656,2.656,0,0,1-2.658-2.658v-7.086a2.658,2.658,0,0,1,2.658-2.658h.886v-.524a2.216,2.216,0,0,1,2.214-2.215h2.657a2.217,2.217,0,0,1,2.215,2.215v.524h2.657v.473c0,.779.952,1.414,1.734,1.414s1.732-.635,1.732-1.414Zm-13.653,6.26a3.543,3.543,0,1,0,3.543-3.543A3.544,3.544,0,0,0,8485.1,4536.921Zm1.539,0a2,2,0,1,1,2,2.005A2,2,0,0,1,8486.639,4536.921Zm11.279-9.124h.9a.9.9,0,0,1,0,1.8h-.9v.9a.9.9,0,1,1-1.8,0v-.9h-.9a.9.9,0,1,1,0-1.8h.9v-.9a.9.9,0,0,1,1.8,0Z" transform="translate(-8481.999 -4526)"/></g></g></g></svg>