<svg xmlns="http://www.w3.org/2000/svg" xmlns:xlink="http://www.w3.org/1999/xlink" width="104" height="28" viewBox="0 0 104 28"><defs><style>.a,.c{fill:#fff;}.a{stroke:#707070;}.b{clip-path:url(#a);}</style><clipPath id="a"><rect class="a" width="104" height="28" transform="translate(80 27)"/></clipPath></defs><g class="b" transform="translate(-80 -27)"><g transform="translate(26.61 29)"><path class="c" d="M74.39,71H82.8a1.367,1.367,0,0,1,1.449,1.265V87.116h7.594A1.367,1.367,0,0,1,93.3,88.381v5.237H74.39Z" transform="translate(-19 -70.273)"/><path class="c" d="M114.532,93.985q-6.159,0-9.42-3.186t-3.232-9.144q0-5.506,3.246-8.59T114.206,70q6.181,0,9.464,3.091t3.275,8.826q0,5.735-3.225,8.921T114.532,93.985Zm-.246-17.613q-4.181,0-4.181,5.378,0,3.467,1.058,4.626a3.944,3.944,0,0,0,3.072,1.16,4.5,4.5,0,0,0,3.326-1.16q1.152-1.16,1.152-4.543Q118.684,76.372,114.286,76.372Z" transform="translate(-25.449 -70)"/><path class="c" d="M162.723,80.655a1.37,1.37,0,0,1,1.449,1.275v2.549a8.37,8.37,0,0,1-3.2,6.972q-3.2,2.511-8.754,2.549-6.217,0-9.6-3.135t-3.391-8.922q0-5.863,3.377-8.884T152.476,70q6.152,0,9.42,3.709a1.153,1.153,0,0,1,.236,1.168,1.377,1.377,0,0,1-.961.833l-4.594,1.275a1.576,1.576,0,0,1-1.536-.4,6.807,6.807,0,0,0-1.116-.937,4.049,4.049,0,0,0-2.174-.5,3.557,3.557,0,0,0-3.268,1.644,10.837,10.837,0,0,0-.986,5.334,9.049,9.049,0,0,0,1.109,5.047,3.976,3.976,0,0,0,3.5,1.612q3.87,0,4-3.7h-3.623V81.93a1.37,1.37,0,0,1,1.449-1.275Z" transform="translate(-35.757 -70)"/><path class="c" d="M188.969,93.985q-6.159,0-9.42-3.186t-3.239-9.144q0-5.506,3.254-8.59T188.636,70q6.2,0,9.464,3.091t3.275,8.826q0,5.735-3.217,8.921T188.969,93.985Zm-.275-17.613q-4.188,0-4.181,5.69,0,3.664,1.058,4.888a3.845,3.845,0,0,0,3.065,1.223,4.358,4.358,0,0,0,3.326-1.223c.775-.816,1.159-2.421,1.159-4.8Q193.122,76.372,188.694,76.372Z" transform="translate(-45.985 -70)"/></g></g></svg>