<svg xmlns="http://www.w3.org/2000/svg" xmlns:xlink="http://www.w3.org/1999/xlink" width="20" height="20" viewBox="0 0 20 20"><defs><style>.a,.c{fill:#959595;}.a{stroke:#707070;}.b{clip-path:url(#a);}</style><clipPath id="a"><rect class="a" width="20" height="20" transform="translate(-292 480)"/></clipPath></defs><g class="b" transform="translate(292 -480)"><g transform="translate(-313.998 458.74)"><g transform="translate(23.998 23.001)"><path class="c" d="M9883.678,6182.87a8.719,8.719,0,0,1,6.754-.351,8.219,8.219,0,1,1-5.312,15.557,2.12,2.12,0,0,1-1.46-2.147c.061-.678,1.992-2.195,2.589-2.528a.412.412,0,0,0,.206-.394.408.408,0,0,0-.27-.352l-1.284-.442c-2.507-.848-5.471-2.579-4.809-5.144A6.969,6.969,0,0,1,9883.678,6182.87Zm5.277,12.559a1.229,1.229,0,1,0-.236-.914A1.231,1.231,0,0,0,9888.955,6195.429Zm3.881-3.772a1.232,1.232,0,1,0-.951-1A1.228,1.228,0,0,0,9892.836,6191.656Zm-1.417-4.59a1.232,1.232,0,0,0-1-2.046,1.232,1.232,0,1,0,1,2.046Zm-6.3-1.335a1.233,1.233,0,1,0,.105-1.7A1.233,1.233,0,0,0,9885.119,6185.731Z" transform="translate(-9879.998 -6182.001)"/></g></g></g></svg>