<svg xmlns="http://www.w3.org/2000/svg" xmlns:xlink="http://www.w3.org/1999/xlink" width="20" height="20" viewBox="0 0 20 20"><defs><style>.a,.c{fill:#959595;}.a{stroke:#707070;}.b{clip-path:url(#a);}</style><clipPath id="a"><rect class="a" width="20" height="20" transform="translate(-494 441)"/></clipPath></defs><g class="b" transform="translate(494 -441)"><g transform="translate(-517.003 419.57)"><g transform="translate(25.003 23.43)"><path class="c" d="M8824.967,5054.98h-1.133a.827.827,0,0,1-.768-.514.848.848,0,0,1,.179-.915l1.741-1.752a.926.926,0,0,1-.02-.169v-2.315a1.11,1.11,0,0,1,1.107-1.113h.007a1.1,1.1,0,0,1,1.1,1.035c0,.234.011.342.026.326l.17-.173q.819-.82,2.45-2.468a1.659,1.659,0,0,1,2.356,0l6.579,6.629a.842.842,0,0,1,.179.915.827.827,0,0,1-.768.514h-.992v4.334a3.122,3.122,0,0,1-3.117,3.116H8828.2a3.22,3.22,0,0,1-3.235-3.116Zm5.021.149a.645.645,0,0,0-.64.652v2.067a.645.645,0,0,0,.64.651h2.029a.646.646,0,0,0,.64-.651v-2.067a.646.646,0,0,0-.64-.652Z" transform="translate(-8823.003 -5046.431)"/></g></g></g></svg>