<svg xmlns="http://www.w3.org/2000/svg" xmlns:xlink="http://www.w3.org/1999/xlink" width="30" height="30" viewBox="0 0 30 30"><defs><style>.a,.c{fill:#b72323;}.a{stroke:#707070;}.b{clip-path:url(#a);}</style><clipPath id="a"><rect class="a" width="30" height="30" transform="translate(35 974)"/></clipPath></defs><g class="b" transform="translate(-35 -974)"><path class="c" d="M-1.711-47.886H17.911V-49.5c0-6.127-5.414-8.745-9.811-8.745-4.451,0-9.811,2.491-9.811,8.745ZM-2.8-36.25H-.076v-8.182H-2.8Zm9.248-1.182c4.56,0,7.867-2.564,10.847-4.564.8-.509.908-1.2.563-1.655a1.577,1.577,0,0,0-1.708-.382L12.515-43a2.329,2.329,0,0,1-2.489,2.036H5.193c.091-.509.727-1.364,2.416-1.364h2.435c1.853,0,1.762-2.109,0-2.109H1.723v6.345A21.619,21.619,0,0,0,6.447-37.432ZM-1.62-46.25H17.82c1.635,0,2.453-.873,2.78-2.618h-25C-4.073-47.123-3.255-46.25-1.62-46.25ZM8.1-55.977c1,0,1.817-.8,1.817-3.473A1.807,1.807,0,0,0,8.1-61.25a1.807,1.807,0,0,0-1.817,1.8C6.283-56.777,7.1-55.977,8.1-55.977Zm0,0" transform="translate(41.9 1037.75)"/></g></svg>