<svg xmlns="http://www.w3.org/2000/svg" xmlns:xlink="http://www.w3.org/1999/xlink" width="30" height="30" viewBox="0 0 30 30"><defs><style>.a,.c{fill:#b72323;}.a{stroke:#707070;}.b{clip-path:url(#a);}</style><clipPath id="a"><path class="a" d="M0,0H30V30H0Z" transform="translate(3479.5 7050.5)"/></clipPath></defs><g class="b" transform="translate(-3479.5 -7050.5)"><path class="c" d="M24.827,10.873,14.627.674a2.3,2.3,0,0,0-3.255,0L1.178,10.866l-.01.01A2.3,2.3,0,0,0,2.7,14.8h.477v7.5A2.7,2.7,0,0,0,5.871,25h3.99a.729.729,0,0,0,.729-.729V18.383a1.23,1.23,0,0,1,1.229-1.229h2.357a1.23,1.23,0,0,1,1.229,1.229v5.887a.729.729,0,0,0,.729.729h3.99a2.7,2.7,0,0,0,2.694-2.694v-7.5H23.2a2.3,2.3,0,0,0,1.629-3.928Z" transform="translate(3481.502 7053)"/></g></svg>