<svg xmlns="http://www.w3.org/2000/svg" xmlns:xlink="http://www.w3.org/1999/xlink" width="30" height="30" viewBox="0 0 30 30"><defs><style>.a,.c{fill:#b72323;}.a{stroke:#707070;}.b{clip-path:url(#a);}</style><clipPath id="a"><rect class="a" width="30" height="30" transform="translate(9 1185)"/></clipPath></defs><g class="b" transform="translate(-9 -1185)"><path class="c" d="M0,3.25A3.25,3.25,0,0,1,3.25,0h19.5A3.25,3.25,0,0,1,26,3.25v19.5A3.25,3.25,0,0,1,22.75,26H3.25A3.25,3.25,0,0,1,0,22.75V3.25ZM11.375,8.125V13h2.438a2.438,2.438,0,0,0,0-4.875ZM8.531,5.688a.406.406,0,0,0-.406.406V19.906a.406.406,0,0,0,.406.406h3.25a.406.406,0,0,0,.406-.406V15.438h2.438a4.875,4.875,0,0,0,0-9.75H8.531Z" transform="translate(11 1187)"/></g></svg>